<svg width="512" height="515" viewBox="0 0 512 515" fill="none" xmlns="http://www.w3.org/2000/svg">
<rect width="512" height="514.92" fill="#FFD571"/>
<path d="M328.836 327.813C388.485 352.83 435.846 325.942 452.07 309.371C461.736 296.809 478.581 265.111 468.64 238.811C456.213 205.936 436.235 199.223 403.398 186.692C350.84 166.636 300.875 181.08 254.274 199.522C207.672 217.963 132.075 213.954 68.9038 217.162C18.3673 219.727 47.8469 246.027 68.9038 258.856C93.0675 266.073 144.294 283.713 155.893 296.542C167.492 309.371 183.854 324.606 226.313 327.813C268.772 331.02 269.186 302.796 328.836 327.813Z" stroke="black" stroke-width="14"/>
<path d="M292.562 237.375C300.613 222.188 322.348 200.927 344.888 237.375" stroke="black" stroke-width="14" stroke-linecap="round"/>
<path d="M365.012 241.4C373.062 226.213 394.797 204.952 417.337 241.4" stroke="black" stroke-width="14" stroke-linecap="round"/>
<path d="M314.7 263.537C313.319 266.053 308.568 271.587 300.612 273.6" stroke="black" stroke-width="14" stroke-linecap="round"/>
<path d="M397.212 277.625C398.594 280.141 403.345 285.675 411.3 287.688" stroke="black" stroke-width="14" stroke-linecap="round"/>
<path d="M308.662 269.575C320.818 298.937 359.579 314.535 401.237 283.483C379.122 299.968 329.646 320.264 308.662 269.575Z" stroke="black" stroke-width="14" stroke-linecap="round"/>
</svg>
